# xmcd CD database file
#
# Track frame offsets:
#	150
#	12812
#	27212
#	40487
#	55487
#	67337
#	80237
#	94862
#	107387
#	117887
#	131537
#	147362
#	160412
#	172262
#	184912
#	199187
#	213587
#	224912
#	236062
#	250037
#
# Disc length: 3463 seconds
#
# Revision: 0
# Processed by: cddbd v1.5.2PL0 Copyright (c) Steve Scherf et al.
# Submitted via: jetAudio 7
#
DISCID=3a0d8514
DTITLE=Floyd Cramer - Sounds Of Love Disc 2
DYEAR=1900
DGENRE=Country
TTITLE0=You Are The Sunshine Of My Life
TTITLE1=Morning Has Broken
TTITLE2=The Twelfth Of Never
TTITLE3=Bridge Over Troubled Water
TTITLE4=A Lover's Concerto
TTITLE5=My Love
TTITLE6=Make It With You
TTITLE7=Something
TTITLE8=Yesterday
TTITLE9=Cherish
TTITLE10=Yesterday Once More
TTITLE11=Too Young
TTITLE12=Spanish Eyes
TTITLE13=It's Impossible (Somos Novios)
TTITLE14=Portrait Of My Love
TTITLE15=My Melody Of Love
TTITLE16=Canadian Sunset
TTITLE17=I Say A Little Prayer
TTITLE18=They Long To Be Close To You
TTITLE19=The Summer Wind
EXTD=
EXTT0=
EXTT1=
EXTT2=
EXTT3=
EXTT4=
EXTT5=
EXTT6=
EXTT7=
EXTT8=
EXTT9=
EXTT10=
EXTT11=
EXTT12=
EXTT13=
EXTT14=
EXTT15=
EXTT16=
EXTT17=
EXTT18=
EXTT19=
PLAYORDER=
